<?xml version="1.0" standalone="no"?>
<!DOCTYPE svg PUBLIC "-//W3C//DTD SVG 20010904//EN"
 "http://www.w3.org/TR/2001/REC-SVG-20010904/DTD/svg10.dtd">
<svg version="1.0" xmlns="http://www.w3.org/2000/svg"
 width="70.000000pt" height="70.000000pt" viewBox="0 0 70.000000 70.000000"
 preserveAspectRatio="xMidYMid meet">
<metadata>
Created by potrace 1.14, written by Peter Selinger 2001-2017
</metadata>
<g transform="translate(0.000000,70.000000) scale(0.100000,-0.100000)"
fill="#000000" stroke="none">
<path d="M17 689 c-16 -9 -17 -37 -17 -349 l0 -340 279 0 c174 0 290 4 309 11
17 6 40 25 51 42 18 30 19 52 17 302 -1 243 -3 274 -19 298 -10 16 -29 32 -43
37 -34 13 -554 12 -577 -1z m566 -68 c15 -15 19 -519 4 -538 -5 -7 -16 -13
-23 -13 -12 0 -14 46 -14 260 l0 260 -27 0 c-16 1 -133 1 -260 1 -128 0 -233
3 -233 6 0 4 6 14 14 22 13 14 49 16 271 15 186 -1 259 -4 268 -13z m-93 -319
c0 -126 -3 -232 -6 -235 -4 -3 -14 -2 -23 2 -14 8 -16 33 -14 198 1 103 -1
195 -3 203 -3 13 -32 15 -196 15 -106 0 -200 1 -208 3 -9 2 -16 12 -17 23 -2
18 7 19 233 19 l234 0 0 -228z m-113 115 c7 -8 12 -322 5 -344 -2 -7 -13 -13
-23 -13 -18 0 -19 10 -19 160 0 121 -3 160 -12 161 -7 0 -78 2 -157 2 -106 2
-145 5 -149 15 -2 6 5 15 17 20 26 9 328 9 338 -1z m-99 -224 c-3 -123 -4
-126 -25 -128 -23 -2 -23 1 -23 105 l0 107 -92 -2 c-108 -1 -118 1 -118 26 0
18 9 19 130 19 l131 0 -3 -127z m-113 18 c14 -1 11 -131 -2 -139 -9 -6 -79 -7
-129 -3 -6 1 -11 29 -11 71 0 54 3 70 16 72 13 3 95 2 126 -1z"/>
</g>
</svg>
